<?xml version="1.0" standalone="no"?>
<!DOCTYPE svg PUBLIC "-//W3C//DTD SVG 20010904//EN"
 "http://www.w3.org/TR/2001/REC-SVG-20010904/DTD/svg10.dtd">
<svg version="1.0" xmlns="http://www.w3.org/2000/svg"
 width="213.000000pt" height="213.000000pt" viewBox="0 0 213.000000 213.000000"
 preserveAspectRatio="xMidYMid meet">
<metadata>
Created by potrace 1.11, written by Peter Selinger 2001-2013
</metadata>
<g transform="translate(0.000000,213.000000) scale(0.100000,-0.100000)"
fill="#000000" stroke="none">
<path d="M1986 2123 c-4 -5 -12 -9 -17 -9 -5 -1 -11 -3 -14 -4 -3 -1 -8 -3
-12 -5 -42 -11 -191 -83 -198 -95 -4 -6 -11 -8 -16 -5 -5 4 -9 1 -9 -4 0 -6
-7 -11 -15 -11 -8 0 -15 -4 -15 -8 0 -5 -10 -14 -22 -19 -44 -20 -189 -156
-238 -222 -14 -19 -31 -40 -38 -48 -7 -7 -10 -13 -5 -13 4 0 1 -6 -7 -13 -8
-7 -20 -21 -26 -32 -49 -89 -63 -118 -87 -172 -14 -35 -24 -63 -20 -63 3 0 1
-6 -5 -12 -5 -7 -13 -28 -17 -45 -8 -39 -9 -39 -69 -12 -62 27 -193 66 -253
75 -26 3 -57 8 -68 11 -27 5 -224 4 -255 -2 -14 -2 -46 -7 -72 -9 -49 -6 -192
-48 -245 -72 -17 -8 -33 -14 -36 -14 -5 0 -148 -79 -156 -86 -7 -7 22 -35 93
-88 85 -64 118 -84 206 -126 101 -49 200 -80 300 -96 19 -2 48 -7 64 -11 30
-5 207 -5 261 1 32 3 74 11 145 27 l45 10 0 92 c1 107 16 242 30 255 8 8 108
-54 195 -119 49 -38 94 -69 99 -69 30 0 222 182 277 262 16 24 32 45 35 48 23
19 132 246 134 280 0 3 3 10 6 15 8 12 25 83 34 135 13 76 21 201 16 263 -1
18 -12 22 -25 10z"/>
<path d="M1465 1078 c-16 -12 -33 -27 -37 -33 -4 -5 -8 -7 -8 -3 0 4 -26 -6
-57 -21 -32 -16 -80 -36 -108 -46 -65 -24 -74 -32 -69 -58 2 -12 6 -38 8 -57
5 -34 7 -44 21 -105 12 -52 57 -178 76 -213 11 -18 19 -39 19 -47 0 -8 3 -15
8 -15 4 0 13 -13 20 -29 28 -64 236 -310 250 -296 3 2 13 -7 24 -20 11 -14 24
-23 29 -20 5 4 9 -2 9 -11 0 -10 3 -15 6 -11 3 3 11 2 18 -4 41 -35 145 -92
147 -81 0 4 2 16 5 27 5 24 14 79 20 120 5 39 5 224 0 251 -3 12 -7 39 -10 60
-4 22 -9 47 -12 56 -3 9 -7 26 -9 38 -20 102 -125 323 -184 387 -12 12 -21 26
-21 30 -1 8 -105 123 -111 123 -2 0 -17 -10 -34 -22z"/>
</g>
</svg>
